<svg width="107" height="86" viewBox="0 0 107 86" fill="none" xmlns="http://www.w3.org/2000/svg">
<path d="M101.169 37.2169C103.61 40.6711 103.61 45.3344 101.169 48.7831C93.4812 59.6419 75.0358 82 53.5008 82C31.9657 82 13.5203 59.6419 5.8322 48.7831C4.64465 47.1292 4 45.0944 4 43C4 40.9056 4.64465 38.8708 5.8322 37.2169C13.5203 26.3581 31.9657 4 53.5008 4C75.0358 4 93.4812 26.3581 101.169 37.2169Z" stroke="#F39C12" stroke-width="7" stroke-linecap="round" stroke-linejoin="round"/>
<path d="M53.5011 59.7142C62.033 59.7142 68.9495 52.231 68.9495 42.9999C68.9495 33.7689 62.033 26.2856 53.5011 26.2856C44.9692 26.2856 38.0527 33.7689 38.0527 42.9999C38.0527 52.231 44.9692 59.7142 53.5011 59.7142Z" stroke="#F39C12" stroke-width="7" stroke-linecap="round" stroke-linejoin="round"/>
</svg>
