<svg width="111" height="78" viewBox="0 0 111 78" fill="none" xmlns="http://www.w3.org/2000/svg">
<path d="M23.3684 37.3044C29.8239 37.3044 35.0526 31.2339 35.0526 23.7392C35.0526 16.2444 29.8239 10.174 23.3684 10.174C16.9129 10.174 11.6842 16.2444 11.6842 23.7392C11.6842 31.2339 16.9129 37.3044 23.3684 37.3044ZM23.3684 44.087C15.5692 44.087 0 48.6313 0 57.6522V61.0435C0 62.9087 1.31447 64.4348 2.92105 64.4348H43.8158C45.4224 64.4348 46.7368 62.9087 46.7368 61.0435V57.6522C46.7368 48.6313 31.1676 44.087 23.3684 44.087Z" fill="#F39C12"/>
<path d="M87.6321 37.3044C94.0876 37.3044 99.3163 31.2339 99.3163 23.7392C99.3163 16.2444 94.0876 10.174 87.6321 10.174C81.1766 10.174 75.9479 16.2444 75.9479 23.7392C75.9479 31.2339 81.1766 37.3044 87.6321 37.3044ZM87.6321 44.087C79.8329 44.087 64.2637 48.6313 64.2637 57.6522V61.0435C64.2637 62.9087 65.5781 64.4348 67.1847 64.4348H108.079C109.686 64.4348 111.001 62.9087 111.001 61.0435V57.6522C111.001 48.6313 95.4313 44.087 87.6321 44.087Z" fill="#F39C12"/>
<path d="M56.9612 39C66.2411 39 73.7573 30.2738 73.7573 19.5C73.7573 8.72625 66.2411 0 56.9612 0C47.6814 0 40.1652 8.72625 40.1652 19.5C40.1652 30.2738 47.6814 39 56.9612 39ZM56.9612 48.75C45.7499 48.75 23.3691 55.2825 23.3691 68.25V73.125C23.3691 75.8063 25.2587 78 27.5682 78H86.3543C88.6638 78 90.5534 75.8063 90.5534 73.125V68.25C90.5534 55.2825 68.1726 48.75 56.9612 48.75Z" fill="#F39C12"/>
</svg>
