<svg width="81" height="81" viewBox="0 0 81 81" fill="none" xmlns="http://www.w3.org/2000/svg">
<path d="M40.4997 80.9167C34.9087 80.9167 29.6545 79.8551 24.7372 77.7319C19.8198 75.6086 15.5424 72.7296 11.9049 69.0948C8.26738 65.4573 5.38837 61.1799 3.26784 56.2625C1.14731 51.3452 0.0857023 46.091 0.0830078 40.5C0.0830078 34.9091 1.14462 29.6549 3.26784 24.7375C5.39106 19.8202 8.27008 15.5427 11.9049 11.9052C15.5424 8.26775 19.8198 5.38874 24.7372 3.26821C29.6545 1.14768 34.9087 0.0860685 40.4997 0.083374C46.0906 0.083374 51.3448 1.14499 56.2622 3.26821C61.1795 5.39143 65.457 8.27044 69.0945 11.9052C72.732 15.5427 75.6123 19.8202 77.7355 24.7375C79.8588 29.6549 80.919 34.9091 80.9163 40.5C80.9163 46.091 79.8547 51.3452 77.7315 56.2625C75.6083 61.1799 72.7293 65.4573 69.0945 69.0948C65.457 72.7323 61.1795 75.6127 56.2622 77.7359C51.3448 79.8591 46.0906 80.9194 40.4997 80.9167ZM40.4997 72.8334C49.5261 72.8334 57.1715 69.7011 63.4361 63.4365C69.7007 57.1719 72.833 49.5264 72.833 40.5C72.833 31.4737 69.7007 23.8282 63.4361 17.5636C57.1715 11.299 49.5261 8.16671 40.4997 8.16671C31.4733 8.16671 23.8278 11.299 17.5632 17.5636C11.2986 23.8282 8.16634 31.4737 8.16634 40.5C8.16634 49.5264 11.2986 57.1719 17.5632 63.4365C23.8278 69.7011 31.4733 72.8334 40.4997 72.8334ZM40.4997 64.75C33.7636 64.75 28.0379 62.3924 23.3226 57.6771C18.6073 52.9618 16.2497 47.2361 16.2497 40.5C16.2497 33.7639 18.6073 28.0382 23.3226 23.323C28.0379 18.6077 33.7636 16.25 40.4997 16.25C47.2358 16.25 52.9615 18.6077 57.6768 23.323C62.392 28.0382 64.7497 33.7639 64.7497 40.5C64.7497 47.2361 62.392 52.9618 57.6768 57.6771C52.9615 62.3924 47.2358 64.75 40.4997 64.75ZM40.4997 56.6667C44.9455 56.6667 48.7514 55.0837 51.9174 51.9177C55.0834 48.7518 56.6663 44.9459 56.6663 40.5C56.6663 36.0542 55.0834 32.2483 51.9174 29.0823C48.7514 25.9164 44.9455 24.3334 40.4997 24.3334C36.0538 24.3334 32.2479 25.9164 29.082 29.0823C25.916 32.2483 24.333 36.0542 24.333 40.5C24.333 44.9459 25.916 48.7518 29.082 51.9177C32.2479 55.0837 36.0538 56.6667 40.4997 56.6667ZM40.4997 48.5834C38.2768 48.5834 36.3731 47.7912 34.7888 46.2069C33.2045 44.6225 32.4136 42.7203 32.4163 40.5C32.4163 38.2771 33.2085 36.3735 34.7928 34.7892C36.3772 33.2048 38.2795 32.414 40.4997 32.4167C42.7226 32.4167 44.6262 33.2089 46.2105 34.7932C47.7949 36.3775 48.5857 38.2798 48.583 40.5C48.583 42.723 47.7908 44.6266 46.2065 46.2109C44.6222 47.7952 42.7199 48.5861 40.4997 48.5834Z" fill="#F39C12"/>
</svg>
